<svg width="369" height="488" viewBox="0 0 369 488" fill="none" xmlns="http://www.w3.org/2000/svg">
<g clip-path="url(#clip0_2509_51753)">
<rect x="126" y="10" width="191" height="411" rx="20" fill="#0F0F0F"/>
<rect width="191" height="24" transform="translate(126 33)" fill="#0F0F0F"/>
<g clip-path="url(#clip1_2509_51753)">
<path d="M152.14 41.5616C151.973 40.9466 151.485 40.4633 150.863 40.2987C149.737 40 145.221 40 145.221 40C145.221 40 140.705 40 139.579 40.2987C138.957 40.4633 138.468 40.9466 138.302 41.5616C138 42.6752 138 45 138 45C138 45 138 47.3248 138.302 48.4384C138.468 49.0534 138.957 49.5367 139.579 49.7013C140.705 50 145.221 50 145.221 50C145.221 50 149.737 50 150.863 49.7013C151.485 49.5367 151.973 49.0534 152.14 48.4384C152.442 47.3248 152.442 45 152.442 45C152.442 45 152.441 42.6752 152.14 41.5616Z" fill="#FF0000"/>
<path d="M143.84 47.1425L147.634 45L143.84 42.8574V47.1425Z" fill="white"/>
<path d="M155.685 46.5016L154.046 40.709H155.476L156.051 43.3348C156.198 43.9816 156.305 44.5331 156.374 44.9893H156.416C156.464 44.6624 156.573 44.1144 156.74 43.3442L157.335 40.709H158.765L157.105 46.5016V49.2803H155.684V46.5016H155.685Z" fill="white"/>
<path d="M159.196 49.0971C158.907 48.9066 158.702 48.6102 158.579 48.2081C158.458 47.8059 158.396 47.2721 158.396 46.6041V45.6951C158.396 45.0213 158.466 44.4793 158.606 44.0712C158.745 43.6632 158.963 43.3645 159.258 43.1775C159.554 42.9906 159.942 42.8965 160.423 42.8965C160.897 42.8965 161.275 42.9917 161.561 43.1822C161.846 43.3727 162.055 43.6714 162.188 44.0759C162.32 44.4816 162.386 45.0213 162.386 45.6951V46.6041C162.386 47.2721 162.321 47.8083 162.193 48.2128C162.064 48.6185 161.855 48.9148 161.566 49.1018C161.278 49.2888 160.886 49.3828 160.392 49.3828C159.882 49.384 159.484 49.2876 159.196 49.0971ZM160.814 48.1164C160.893 47.9118 160.934 47.579 160.934 47.1157V45.1648C160.934 44.7156 160.894 44.3864 160.814 44.1794C160.733 43.9713 160.593 43.8678 160.391 43.8678C160.196 43.8678 160.058 43.9713 159.978 44.1794C159.898 44.3875 159.858 44.7156 159.858 45.1648V47.1157C159.858 47.579 159.897 47.9129 159.974 48.1164C160.05 48.321 160.189 48.4233 160.391 48.4233C160.593 48.4233 160.733 48.321 160.814 48.1164Z" fill="white"/>
<path d="M167.039 49.2817H165.912L165.787 48.515H165.755C165.449 49.0935 164.99 49.3828 164.377 49.3828C163.952 49.3828 163.639 49.2464 163.437 48.9748C163.235 48.7019 163.134 48.2763 163.134 47.6977V43.0188H164.575V47.6154C164.575 47.8953 164.606 48.094 164.669 48.2128C164.731 48.3315 164.836 48.3915 164.983 48.3915C165.108 48.3915 165.228 48.3539 165.343 48.2786C165.459 48.2033 165.543 48.1081 165.599 47.9929V43.0176H167.039V49.2817Z" fill="white"/>
<path d="M170.954 41.8435H169.523V49.2812H168.113V41.8435H166.683V40.71H170.954V41.8435Z" fill="white"/>
<path d="M174.43 49.2817H173.302L173.177 48.515H173.146C172.84 49.0935 172.38 49.3828 171.767 49.3828C171.343 49.3828 171.029 49.2464 170.827 48.9748C170.625 48.7019 170.524 48.2763 170.524 47.6977V43.0188H171.966V47.6154C171.966 47.8953 171.997 48.094 172.059 48.2128C172.122 48.3315 172.227 48.3915 172.373 48.3915C172.498 48.3915 172.618 48.3539 172.734 48.2786C172.849 48.2033 172.933 48.1081 172.99 47.9929V43.0176H174.43V49.2817Z" fill="white"/>
<path d="M179.199 44.0191C179.112 43.624 178.971 43.3383 178.776 43.1607C178.582 42.9831 178.314 42.8949 177.972 42.8949C177.708 42.8949 177.46 42.9678 177.231 43.1148C177.001 43.2618 176.823 43.4535 176.698 43.6922H176.687V40.3926H175.299V49.2802H176.489L176.635 48.6875H176.667C176.779 48.8992 176.946 49.065 177.168 49.1885C177.39 49.3108 177.638 49.3719 177.91 49.3719C178.397 49.3719 178.756 49.152 178.986 48.7134C179.215 48.2736 179.33 47.588 179.33 46.6544V45.6631C179.33 44.9634 179.286 44.4142 179.199 44.0191ZM177.878 46.5744C177.878 47.0306 177.859 47.3881 177.821 47.6468C177.782 47.9055 177.719 48.0902 177.627 48.1983C177.537 48.3077 177.414 48.3618 177.262 48.3618C177.143 48.3618 177.033 48.3347 176.932 48.2795C176.831 48.2254 176.75 48.1431 176.687 48.0349V44.4801C176.735 44.3096 176.819 44.1708 176.938 44.0614C177.056 43.9521 177.186 43.898 177.324 43.898C177.471 43.898 177.584 43.9544 177.663 44.0661C177.744 44.179 177.799 44.3672 177.83 44.6329C177.862 44.8987 177.877 45.2762 177.877 45.7665V46.5744H177.878Z" fill="white"/>
<path d="M181.376 46.9354C181.376 47.3375 181.388 47.6386 181.412 47.8397C181.436 48.0407 181.486 48.1866 181.563 48.2795C181.64 48.3712 181.758 48.417 181.918 48.417C182.133 48.417 182.282 48.3347 182.361 48.1713C182.442 48.0078 182.485 47.735 182.492 47.354L183.735 47.4257C183.742 47.4798 183.746 47.5551 183.746 47.6503C183.746 48.2289 183.584 48.6616 183.26 48.9474C182.937 49.2331 182.479 49.3766 181.888 49.3766C181.177 49.3766 180.68 49.159 180.395 48.7228C180.109 48.2865 179.967 47.6127 179.967 46.7002V45.6066C179.967 44.667 180.115 43.9803 180.41 43.5475C180.706 43.1148 181.212 42.8984 181.93 42.8984C182.424 42.8984 182.804 42.9866 183.068 43.1642C183.333 43.3418 183.519 43.6169 183.627 43.992C183.735 44.3672 183.789 44.8846 183.789 45.5454V46.6179H181.376V46.9354ZM181.558 43.9838C181.485 44.072 181.437 44.2166 181.412 44.4177C181.388 44.6188 181.376 44.9234 181.376 45.3326V45.7818H182.43V45.3326C182.43 44.9304 182.415 44.6259 182.388 44.4177C182.36 44.2096 182.31 44.0638 182.236 43.9779C182.163 43.8933 182.05 43.8498 181.897 43.8498C181.743 43.8509 181.63 43.8956 181.558 43.9838Z" fill="white"/>
</g>
<path fill-rule="evenodd" clip-rule="evenodd" d="M255.167 40.333H266.834V49.6663H262.167V49.083H266.25V40.9163H255.75V42.6663H255.167V40.333Z" fill="white"/>
<path fill-rule="evenodd" clip-rule="evenodd" d="M255.167 43.833C255.933 43.833 256.692 43.9839 257.399 44.277C258.107 44.5702 258.75 44.9999 259.292 45.5416C259.833 46.0832 260.263 46.7263 260.556 47.434C260.849 48.1418 261 48.9003 261 49.6663H259.834C259.834 49.0535 259.713 48.4467 259.478 47.8805C259.244 47.3143 258.9 46.7998 258.467 46.3665C258.033 45.9332 257.519 45.5894 256.953 45.3549C256.387 45.1204 255.78 44.9997 255.167 44.9997V43.833Z" fill="white"/>
<path fill-rule="evenodd" clip-rule="evenodd" d="M255.167 45.875C255.665 45.875 256.158 45.9731 256.618 46.1636C257.078 46.3542 257.496 46.6335 257.848 46.9856C258.2 47.3376 258.479 47.7556 258.67 48.2157C258.861 48.6757 258.959 49.1687 258.959 49.6667H257.792C257.792 49.3219 257.724 48.9806 257.592 48.6621C257.46 48.3436 257.267 48.0543 257.023 47.8105C256.779 47.5668 256.49 47.3734 256.172 47.2415C255.853 47.1096 255.512 47.0417 255.167 47.0417L255.167 45.875Z" fill="white"/>
<path d="M256.917 49.667C256.917 49.4372 256.872 49.2096 256.784 48.9973C256.696 48.785 256.567 48.5921 256.404 48.4296C256.242 48.2671 256.049 48.1381 255.837 48.0502C255.624 47.9623 255.397 47.917 255.167 47.917L255.167 49.667H256.917Z" fill="white"/>
<path fill-rule="evenodd" clip-rule="evenodd" d="M280 41.2083C278.389 41.2083 277.083 42.5142 277.083 44.125V47.1625L275.916 48.3291V48.5H284.083V48.3291L282.916 47.1625V44.125C282.916 42.5142 281.611 41.2083 280 41.2083ZM276.5 44.125C276.5 42.192 278.067 40.625 280 40.625C281.933 40.625 283.5 42.192 283.5 44.125V46.9209L284.666 48.0875V49.0833H275.333V48.0875L276.5 46.9209V44.125Z" fill="white"/>
<path d="M278.833 40.3337C278.833 39.6893 279.355 39.167 280 39.167C280.644 39.167 281.166 39.6893 281.166 40.3337V40.917H278.833V40.3337Z" fill="white"/>
<path d="M281.166 49.667C281.166 49.8202 281.136 49.9719 281.078 50.1135C281.019 50.255 280.933 50.3836 280.825 50.4919C280.716 50.6003 280.588 50.6862 280.446 50.7449C280.305 50.8035 280.153 50.8337 280 50.8337C279.846 50.8337 279.695 50.8035 279.553 50.7449C279.412 50.6862 279.283 50.6003 279.175 50.4919C279.066 50.3836 278.98 50.255 278.922 50.1135C278.863 49.9719 278.833 49.8202 278.833 49.667L280 49.667H281.166Z" fill="white"/>
<path fill-rule="evenodd" clip-rule="evenodd" d="M297.833 40.3333C295.9 40.3333 294.333 41.9003 294.333 43.8333C294.333 45.7663 295.9 47.3333 297.833 47.3333C299.766 47.3333 301.333 45.7663 301.333 43.8333C301.333 41.9003 299.766 40.3333 297.833 40.3333ZM293.75 43.8333C293.75 41.5782 295.578 39.75 297.833 39.75C300.088 39.75 301.917 41.5782 301.917 43.8333C301.917 46.0885 300.088 47.9167 297.833 47.9167C295.578 47.9167 293.75 46.0885 293.75 43.8333Z" fill="white"/>
<path fill-rule="evenodd" clip-rule="evenodd" d="M303.752 50.1644L300.252 46.6644L300.664 46.252L304.164 49.752L303.752 50.1644Z" fill="white"/>
<mask id="path-20-inside-1_2509_51753" fill="white">
<path d="M126 363H317V397H126V363Z"/>
</mask>
<path d="M126 363H317V397H126V363Z" fill="#0F0F0F"/>
<path d="M126 364H317V362H126V364Z" fill="white" fill-opacity="0.1" mask="url(#path-20-inside-1_2509_51753)"/>
<path fill-rule="evenodd" clip-rule="evenodd" d="M141 369L135.667 373.667V381H139.667V377H142.334V381H146.334V373.667L141 369Z" fill="white"/>
<path d="M135.781 388.568V389.028H133.473V388.568H135.781ZM133.561 386.734V391H132.995V386.734H133.561ZM136.273 386.734V391H135.711V386.734H136.273ZM137.053 389.45V389.383C137.053 389.154 137.086 388.942 137.152 388.747C137.219 388.55 137.314 388.379 137.439 388.234C137.564 388.088 137.716 387.975 137.894 387.895C138.071 387.812 138.271 387.771 138.491 387.771C138.714 387.771 138.914 387.812 139.092 387.895C139.271 387.975 139.424 388.088 139.549 388.234C139.676 388.379 139.772 388.55 139.839 388.747C139.905 388.942 139.938 389.154 139.938 389.383V389.45C139.938 389.679 139.905 389.891 139.839 390.086C139.772 390.281 139.676 390.452 139.549 390.599C139.424 390.743 139.272 390.856 139.095 390.938C138.919 391.019 138.72 391.059 138.497 391.059C138.274 391.059 138.074 391.019 137.896 390.938C137.719 390.856 137.566 390.743 137.439 390.599C137.314 390.452 137.219 390.281 137.152 390.086C137.086 389.891 137.053 389.679 137.053 389.45ZM137.595 389.383V389.45C137.595 389.608 137.613 389.758 137.65 389.898C137.688 390.037 137.743 390.16 137.817 390.268C137.894 390.375 137.988 390.46 138.102 390.522C138.215 390.583 138.347 390.613 138.497 390.613C138.646 390.613 138.775 390.583 138.887 390.522C139 390.46 139.094 390.375 139.168 390.268C139.242 390.16 139.298 390.037 139.335 389.898C139.374 389.758 139.394 389.608 139.394 389.45V389.383C139.394 389.227 139.374 389.079 139.335 388.94C139.298 388.8 139.241 388.676 139.165 388.568C139.091 388.459 138.997 388.373 138.884 388.311C138.772 388.248 138.642 388.217 138.491 388.217C138.343 388.217 138.212 388.248 138.099 388.311C137.987 388.373 137.894 388.459 137.817 388.568C137.743 388.676 137.688 388.8 137.65 388.94C137.613 389.079 137.595 389.227 137.595 389.383ZM141.157 388.46V391H140.612V387.83H141.128L141.157 388.46ZM141.046 389.295L140.794 389.286C140.796 389.069 140.824 388.869 140.879 388.686C140.934 388.5 141.015 388.339 141.122 388.202C141.229 388.065 141.363 387.96 141.523 387.886C141.684 387.81 141.869 387.771 142.08 387.771C142.229 387.771 142.365 387.793 142.49 387.836C142.615 387.877 142.724 387.942 142.815 388.032C142.907 388.122 142.979 388.237 143.029 388.378C143.08 388.519 143.105 388.688 143.105 388.888V391H142.563V388.914C142.563 388.748 142.535 388.615 142.479 388.516C142.424 388.416 142.346 388.344 142.244 388.299C142.143 388.252 142.023 388.229 141.887 388.229C141.727 388.229 141.593 388.257 141.485 388.313C141.378 388.37 141.292 388.448 141.228 388.548C141.163 388.647 141.116 388.762 141.087 388.891C141.06 389.018 141.046 389.152 141.046 389.295ZM143.1 388.996L142.736 389.107C142.738 388.934 142.767 388.767 142.821 388.606C142.878 388.446 142.959 388.304 143.064 388.179C143.172 388.054 143.304 387.955 143.46 387.883C143.616 387.809 143.795 387.771 143.996 387.771C144.166 387.771 144.316 387.794 144.447 387.839C144.58 387.884 144.691 387.953 144.781 388.047C144.873 388.139 144.942 388.257 144.989 388.401C145.036 388.546 145.06 388.718 145.06 388.917V391H144.515V388.911C144.515 388.733 144.486 388.596 144.43 388.498C144.375 388.398 144.297 388.329 144.195 388.29C144.096 388.249 143.977 388.229 143.838 388.229C143.719 388.229 143.613 388.249 143.521 388.29C143.43 388.331 143.353 388.388 143.29 388.46C143.228 388.53 143.18 388.611 143.146 388.703C143.115 388.795 143.1 388.893 143.1 388.996ZM147.195 391.059C146.975 391.059 146.774 391.021 146.595 390.947C146.417 390.871 146.264 390.765 146.135 390.628C146.008 390.491 145.91 390.329 145.842 390.142C145.773 389.954 145.739 389.749 145.739 389.526V389.403C145.739 389.146 145.777 388.916 145.854 388.715C145.93 388.512 146.033 388.34 146.164 388.199C146.295 388.059 146.443 387.952 146.609 387.88C146.775 387.808 146.947 387.771 147.125 387.771C147.352 387.771 147.547 387.811 147.711 387.889C147.877 387.967 148.013 388.076 148.118 388.217C148.224 388.355 148.302 388.52 148.353 388.709C148.403 388.896 148.429 389.102 148.429 389.324V389.567H146.062V389.125H147.887V389.084C147.879 388.943 147.85 388.807 147.799 388.674C147.75 388.541 147.672 388.432 147.564 388.346C147.457 388.26 147.311 388.217 147.125 388.217C147.002 388.217 146.889 388.243 146.785 388.296C146.682 388.347 146.593 388.423 146.519 388.524C146.444 388.626 146.387 388.75 146.346 388.896C146.305 389.043 146.284 389.212 146.284 389.403V389.526C146.284 389.677 146.305 389.818 146.346 389.951C146.389 390.082 146.45 390.197 146.53 390.297C146.612 390.396 146.711 390.475 146.826 390.531C146.943 390.588 147.076 390.616 147.225 390.616C147.416 390.616 147.578 390.577 147.711 390.499C147.844 390.421 147.96 390.316 148.06 390.186L148.388 390.446C148.319 390.55 148.232 390.648 148.127 390.742C148.021 390.836 147.892 390.912 147.737 390.971C147.585 391.029 147.404 391.059 147.195 391.059Z" fill="white"/>
<g clip-path="url(#clip2_2509_51753)">
<path fill-rule="evenodd" clip-rule="evenodd" d="M175.371 372.407C174.414 372.96 174.086 374.183 174.639 375.14C174.926 375.637 175.394 375.964 175.912 376.086C176.045 376.118 176.146 376.227 176.165 376.362C176.185 376.497 176.121 376.631 176.002 376.699L175.204 377.16C174.247 377.713 173.92 378.936 174.472 379.892C175.024 380.849 176.247 381.177 177.204 380.624L182.4 377.624C183.357 377.072 183.684 375.849 183.132 374.892C182.845 374.395 182.377 374.068 181.859 373.946C181.726 373.914 181.625 373.805 181.605 373.67C181.586 373.534 181.65 373.401 181.769 373.332L182.567 372.872C183.523 372.319 183.851 371.096 183.299 370.14C182.747 369.183 181.523 368.855 180.567 369.407L175.371 372.407ZM174.061 375.473C173.325 374.197 173.762 372.567 175.037 371.83L180.233 368.83C181.509 368.094 183.14 368.531 183.876 369.806C184.613 371.082 184.176 372.713 182.9 373.449L182.701 373.564C183.107 373.791 183.46 374.127 183.71 374.559C184.446 375.834 184.009 377.465 182.733 378.202L177.537 381.202C176.262 381.938 174.631 381.501 173.895 380.226C173.158 378.95 173.595 377.319 174.871 376.583L175.07 376.468C174.663 376.241 174.311 375.905 174.061 375.473Z" fill="white"/>
<path d="M181 375L178 376.732L178 373.268L181 375Z" fill="white"/>
</g>
<path d="M172.769 389.922C172.769 389.822 172.753 389.734 172.722 389.658C172.692 389.58 172.64 389.51 172.563 389.447C172.489 389.385 172.386 389.325 172.253 389.269C172.122 389.212 171.956 389.154 171.755 389.096C171.544 389.033 171.354 388.964 171.184 388.888C171.014 388.81 170.868 388.721 170.747 388.621C170.626 388.521 170.533 388.407 170.469 388.278C170.404 388.149 170.372 388.002 170.372 387.836C170.372 387.67 170.406 387.517 170.475 387.376C170.543 387.235 170.641 387.113 170.768 387.01C170.896 386.904 171.05 386.822 171.228 386.764C171.405 386.705 171.604 386.676 171.822 386.676C172.143 386.676 172.414 386.737 172.637 386.86C172.861 386.981 173.032 387.141 173.149 387.338C173.267 387.533 173.325 387.742 173.325 387.965H172.763C172.763 387.805 172.729 387.663 172.66 387.54C172.592 387.415 172.488 387.317 172.35 387.247C172.211 387.175 172.035 387.139 171.822 387.139C171.621 387.139 171.455 387.169 171.324 387.229C171.193 387.29 171.096 387.372 171.031 387.476C170.969 387.579 170.938 387.697 170.938 387.83C170.938 387.92 170.956 388.002 170.993 388.076C171.032 388.148 171.092 388.216 171.172 388.278C171.254 388.341 171.357 388.398 171.482 388.451C171.609 388.504 171.761 388.555 171.937 388.604C172.179 388.672 172.388 388.748 172.563 388.832C172.739 388.916 172.884 389.011 172.997 389.116C173.112 389.22 173.197 389.338 173.252 389.471C173.309 389.602 173.337 389.75 173.337 389.916C173.337 390.09 173.302 390.247 173.231 390.388C173.161 390.528 173.061 390.648 172.93 390.748C172.799 390.848 172.642 390.925 172.458 390.979C172.276 391.032 172.073 391.059 171.849 391.059C171.651 391.059 171.457 391.031 171.266 390.977C171.076 390.922 170.903 390.84 170.747 390.73C170.593 390.621 170.469 390.486 170.375 390.326C170.283 390.164 170.237 389.977 170.237 389.764H170.8C170.8 389.91 170.828 390.036 170.885 390.142C170.941 390.245 171.019 390.331 171.116 390.399C171.216 390.468 171.328 390.519 171.453 390.552C171.58 390.583 171.712 390.599 171.849 390.599C172.046 390.599 172.213 390.571 172.35 390.517C172.486 390.462 172.59 390.384 172.66 390.282C172.732 390.181 172.769 390.061 172.769 389.922ZM174.518 386.5V391H173.976V386.5H174.518ZM174.389 389.295L174.163 389.286C174.165 389.069 174.197 388.869 174.26 388.686C174.322 388.5 174.41 388.339 174.523 388.202C174.637 388.065 174.771 387.96 174.928 387.886C175.086 387.81 175.261 387.771 175.452 387.771C175.608 387.771 175.749 387.793 175.874 387.836C175.999 387.877 176.105 387.943 176.193 388.035C176.283 388.127 176.352 388.246 176.398 388.393C176.445 388.537 176.469 388.714 176.469 388.923V391H175.924V388.917C175.924 388.751 175.899 388.618 175.851 388.519C175.802 388.417 175.73 388.344 175.637 388.299C175.543 388.252 175.428 388.229 175.291 388.229C175.156 388.229 175.033 388.257 174.922 388.313C174.812 388.37 174.718 388.448 174.638 388.548C174.56 388.647 174.498 388.762 174.453 388.891C174.41 389.018 174.389 389.152 174.389 389.295ZM177.137 389.45V389.383C177.137 389.154 177.17 388.942 177.236 388.747C177.303 388.55 177.398 388.379 177.523 388.234C177.648 388.088 177.8 387.975 177.978 387.895C178.155 387.812 178.354 387.771 178.575 387.771C178.798 387.771 178.998 387.812 179.176 387.895C179.355 387.975 179.508 388.088 179.633 388.234C179.76 388.379 179.856 388.55 179.923 388.747C179.989 388.942 180.022 389.154 180.022 389.383V389.45C180.022 389.679 179.989 389.891 179.923 390.086C179.856 390.281 179.76 390.452 179.633 390.599C179.508 390.743 179.356 390.856 179.179 390.938C179.003 391.019 178.804 391.059 178.581 391.059C178.358 391.059 178.158 391.019 177.98 390.938C177.803 390.856 177.65 390.743 177.523 390.599C177.398 390.452 177.303 390.281 177.236 390.086C177.17 389.891 177.137 389.679 177.137 389.45ZM177.679 389.383V389.45C177.679 389.608 177.697 389.758 177.734 389.898C177.771 390.037 177.827 390.16 177.901 390.268C177.978 390.375 178.072 390.46 178.186 390.522C178.299 390.583 178.431 390.613 178.581 390.613C178.729 390.613 178.859 390.583 178.971 390.522C179.084 390.46 179.178 390.375 179.252 390.268C179.326 390.16 179.382 390.037 179.419 389.898C179.458 389.758 179.478 389.608 179.478 389.45V389.383C179.478 389.227 179.458 389.079 179.419 388.94C179.382 388.8 179.325 388.676 179.249 388.568C179.175 388.459 179.081 388.373 178.968 388.311C178.856 388.248 178.726 388.217 178.575 388.217C178.427 388.217 178.296 388.248 178.183 388.311C178.071 388.373 177.978 388.459 177.901 388.568C177.827 388.676 177.771 388.8 177.734 388.94C177.697 389.079 177.679 389.227 177.679 389.383ZM181.244 388.328V391H180.702V387.83H181.229L181.244 388.328ZM182.234 387.812L182.231 388.316C182.187 388.307 182.144 388.301 182.103 388.299C182.063 388.295 182.019 388.293 181.968 388.293C181.843 388.293 181.732 388.312 181.637 388.352C181.541 388.391 181.46 388.445 181.394 388.516C181.327 388.586 181.274 388.67 181.235 388.768C181.198 388.863 181.174 388.969 181.162 389.084L181.01 389.172C181.01 388.98 181.028 388.801 181.065 388.633C181.104 388.465 181.164 388.316 181.244 388.188C181.324 388.057 181.426 387.955 181.549 387.883C181.674 387.809 181.822 387.771 181.994 387.771C182.033 387.771 182.078 387.776 182.129 387.786C182.18 387.794 182.215 387.803 182.234 387.812ZM184.209 387.83V388.246H182.495V387.83H184.209ZM183.075 387.06H183.617V390.215C183.617 390.322 183.634 390.403 183.667 390.458C183.7 390.513 183.743 390.549 183.796 390.566C183.849 390.584 183.905 390.593 183.966 390.593C184.011 390.593 184.058 390.589 184.106 390.581C184.157 390.571 184.195 390.563 184.221 390.558L184.224 391C184.181 391.014 184.124 391.026 184.054 391.038C183.985 391.052 183.902 391.059 183.805 391.059C183.672 391.059 183.55 391.032 183.438 390.979C183.327 390.927 183.238 390.839 183.172 390.716C183.107 390.591 183.075 390.423 183.075 390.212V387.06ZM186.69 390.159C186.69 390.081 186.673 390.009 186.638 389.942C186.604 389.874 186.535 389.812 186.43 389.758C186.326 389.701 186.17 389.652 185.961 389.611C185.785 389.574 185.626 389.53 185.483 389.479C185.343 389.429 185.223 389.367 185.123 389.295C185.025 389.223 184.95 389.138 184.897 389.04C184.845 388.942 184.818 388.828 184.818 388.697C184.818 388.572 184.846 388.454 184.9 388.343C184.957 388.231 185.036 388.133 185.138 388.047C185.241 387.961 185.365 387.894 185.51 387.845C185.654 387.796 185.815 387.771 185.993 387.771C186.247 387.771 186.464 387.816 186.644 387.906C186.823 387.996 186.961 388.116 187.057 388.267C187.152 388.415 187.2 388.58 187.2 388.762H186.658C186.658 388.674 186.632 388.589 186.579 388.507C186.528 388.423 186.453 388.354 186.354 388.299C186.256 388.244 186.136 388.217 185.993 388.217C185.843 388.217 185.721 388.24 185.627 388.287C185.535 388.332 185.468 388.39 185.425 388.46C185.384 388.53 185.363 388.604 185.363 388.683C185.363 388.741 185.373 388.794 185.393 388.841C185.414 388.886 185.451 388.928 185.504 388.967C185.557 389.004 185.631 389.039 185.727 389.072C185.822 389.105 185.944 389.139 186.093 389.172C186.353 389.23 186.566 389.301 186.734 389.383C186.902 389.465 187.027 389.565 187.109 389.685C187.191 389.804 187.232 389.948 187.232 390.118C187.232 390.257 187.203 390.384 187.145 390.499C187.088 390.614 187.005 390.714 186.896 390.798C186.788 390.88 186.659 390.944 186.509 390.991C186.36 391.036 186.193 391.059 186.008 391.059C185.729 391.059 185.492 391.009 185.299 390.909C185.105 390.81 184.959 390.681 184.859 390.522C184.76 390.364 184.71 390.197 184.71 390.021H185.255C185.263 390.17 185.306 390.288 185.384 390.376C185.462 390.462 185.558 390.523 185.671 390.561C185.784 390.596 185.896 390.613 186.008 390.613C186.156 390.613 186.28 390.594 186.38 390.555C186.481 390.516 186.559 390.462 186.611 390.394C186.664 390.325 186.69 390.247 186.69 390.159Z" fill="white"/>
<path d="M227.75 381C227.75 385.808 224.035 389.666 219.5 389.666C214.965 389.666 211.25 385.808 211.25 381C211.25 376.191 214.965 372.333 219.5 372.333C224.035 372.333 227.75 376.191 227.75 381Z" stroke="white"/>
<path d="M214.688 380.312H224.312V381.688H214.688V380.312Z" fill="white"/>
<path d="M220.156 375.958L220.156 386.041L218.844 386.041L218.844 375.958L220.156 375.958Z" fill="white"/>
<path d="M263.771 376.625L260.583 378.466L260.583 374.785L263.771 376.625Z" fill="white"/>
<path fill-rule="evenodd" clip-rule="evenodd" d="M254.917 372.375H269.084V380.875H254.917V372.375ZM255.625 373.083V380.167H268.375V373.083H255.625Z" fill="white"/>
<path d="M256.333 370.25H267.666V370.958H256.333V370.25Z" fill="white"/>
<path d="M258.458 368.125H265.541V368.833H258.458V368.125Z" fill="white"/>
<path d="M246.269 389.922C246.269 389.822 246.253 389.734 246.222 389.658C246.192 389.58 246.14 389.51 246.063 389.447C245.989 389.385 245.886 389.325 245.753 389.269C245.622 389.212 245.456 389.154 245.255 389.096C245.044 389.033 244.854 388.964 244.684 388.888C244.514 388.81 244.368 388.721 244.247 388.621C244.126 388.521 244.033 388.407 243.969 388.278C243.904 388.149 243.872 388.002 243.872 387.836C243.872 387.67 243.906 387.517 243.975 387.376C244.043 387.235 244.141 387.113 244.268 387.01C244.396 386.904 244.55 386.822 244.728 386.764C244.905 386.705 245.104 386.676 245.322 386.676C245.643 386.676 245.914 386.737 246.137 386.86C246.361 386.981 246.532 387.141 246.649 387.338C246.767 387.533 246.825 387.742 246.825 387.965H246.263C246.263 387.805 246.229 387.663 246.16 387.54C246.092 387.415 245.988 387.317 245.85 387.247C245.711 387.175 245.535 387.139 245.322 387.139C245.121 387.139 244.955 387.169 244.824 387.229C244.693 387.29 244.596 387.372 244.531 387.476C244.469 387.579 244.438 387.697 244.438 387.83C244.438 387.92 244.456 388.002 244.493 388.076C244.532 388.148 244.592 388.216 244.672 388.278C244.754 388.341 244.857 388.398 244.982 388.451C245.109 388.504 245.261 388.555 245.437 388.604C245.679 388.672 245.888 388.748 246.063 388.832C246.239 388.916 246.384 389.011 246.497 389.116C246.612 389.22 246.697 389.338 246.752 389.471C246.809 389.602 246.837 389.75 246.837 389.916C246.837 390.09 246.802 390.247 246.731 390.388C246.661 390.528 246.561 390.648 246.43 390.748C246.299 390.848 246.142 390.925 245.958 390.979C245.776 391.032 245.573 391.059 245.349 391.059C245.151 391.059 244.957 391.031 244.766 390.977C244.576 390.922 244.403 390.84 244.247 390.73C244.093 390.621 243.969 390.486 243.875 390.326C243.783 390.164 243.737 389.977 243.737 389.764H244.3C244.3 389.91 244.328 390.036 244.385 390.142C244.441 390.245 244.519 390.331 244.616 390.399C244.716 390.468 244.828 390.519 244.953 390.552C245.08 390.583 245.212 390.599 245.349 390.599C245.546 390.599 245.713 390.571 245.85 390.517C245.986 390.462 246.09 390.384 246.16 390.282C246.232 390.181 246.269 390.061 246.269 389.922ZM249.415 390.268V387.83H249.96V391H249.441L249.415 390.268ZM249.518 389.6L249.743 389.594C249.743 389.805 249.721 390 249.676 390.18C249.633 390.357 249.562 390.512 249.465 390.643C249.367 390.773 249.239 390.876 249.081 390.95C248.923 391.022 248.73 391.059 248.504 391.059C248.35 391.059 248.208 391.036 248.079 390.991C247.952 390.946 247.843 390.877 247.751 390.783C247.659 390.689 247.588 390.567 247.537 390.417C247.488 390.267 247.464 390.086 247.464 389.875V387.83H248.006V389.881C248.006 390.023 248.021 390.142 248.053 390.235C248.086 390.327 248.13 390.4 248.185 390.455C248.241 390.508 248.304 390.545 248.372 390.566C248.442 390.588 248.515 390.599 248.589 390.599C248.819 390.599 249.002 390.555 249.137 390.467C249.271 390.377 249.368 390.257 249.427 390.106C249.487 389.954 249.518 389.785 249.518 389.6ZM250.783 386.5H251.328V390.385L251.281 391H250.783V386.5ZM253.47 389.389V389.45C253.47 389.681 253.442 389.895 253.388 390.092C253.333 390.287 253.253 390.457 253.147 390.602C253.042 390.746 252.913 390.858 252.761 390.938C252.608 391.019 252.434 391.059 252.236 391.059C252.035 391.059 251.858 391.024 251.706 390.956C251.556 390.886 251.429 390.785 251.325 390.654C251.222 390.523 251.139 390.365 251.076 390.18C251.016 389.994 250.974 389.785 250.95 389.553V389.283C250.974 389.049 251.016 388.839 251.076 388.653C251.139 388.468 251.222 388.31 251.325 388.179C251.429 388.046 251.556 387.945 251.706 387.877C251.856 387.807 252.031 387.771 252.23 387.771C252.43 387.771 252.606 387.811 252.761 387.889C252.915 387.965 253.044 388.074 253.147 388.217C253.253 388.359 253.333 388.53 253.388 388.729C253.442 388.927 253.47 389.146 253.47 389.389ZM252.925 389.45V389.389C252.925 389.23 252.91 389.082 252.881 388.943C252.852 388.803 252.805 388.68 252.74 388.574C252.676 388.467 252.591 388.383 252.485 388.322C252.38 388.26 252.25 388.229 252.096 388.229C251.959 388.229 251.84 388.252 251.738 388.299C251.639 388.346 251.554 388.409 251.483 388.489C251.413 388.567 251.355 388.657 251.311 388.759C251.268 388.858 251.235 388.962 251.214 389.069V389.775C251.245 389.912 251.296 390.044 251.366 390.171C251.438 390.296 251.534 390.398 251.653 390.479C251.774 390.559 251.924 390.599 252.102 390.599C252.248 390.599 252.373 390.569 252.477 390.511C252.582 390.45 252.667 390.367 252.731 390.262C252.798 390.156 252.847 390.034 252.878 389.896C252.909 389.757 252.925 389.608 252.925 389.45ZM256.001 390.159C256.001 390.081 255.983 390.009 255.948 389.942C255.915 389.874 255.846 389.812 255.74 389.758C255.637 389.701 255.48 389.652 255.271 389.611C255.096 389.574 254.937 389.53 254.794 389.479C254.653 389.429 254.533 389.367 254.434 389.295C254.336 389.223 254.261 389.138 254.208 389.04C254.155 388.942 254.129 388.828 254.129 388.697C254.129 388.572 254.156 388.454 254.211 388.343C254.268 388.231 254.347 388.133 254.448 388.047C254.552 387.961 254.676 387.894 254.82 387.845C254.965 387.796 255.126 387.771 255.304 387.771C255.558 387.771 255.774 387.816 255.954 387.906C256.134 387.996 256.271 388.116 256.367 388.267C256.463 388.415 256.511 388.58 256.511 388.762H255.969C255.969 388.674 255.942 388.589 255.89 388.507C255.839 388.423 255.764 388.354 255.664 388.299C255.566 388.244 255.446 388.217 255.304 388.217C255.153 388.217 255.031 388.24 254.938 388.287C254.846 388.332 254.778 388.39 254.735 388.46C254.694 388.53 254.674 388.604 254.674 388.683C254.674 388.741 254.684 388.794 254.703 388.841C254.725 388.886 254.762 388.928 254.814 388.967C254.867 389.004 254.941 389.039 255.037 389.072C255.133 389.105 255.255 389.139 255.403 389.172C255.663 389.23 255.877 389.301 256.045 389.383C256.213 389.465 256.338 389.565 256.42 389.685C256.502 389.804 256.543 389.948 256.543 390.118C256.543 390.257 256.514 390.384 256.455 390.499C256.398 390.614 256.315 390.714 256.206 390.798C256.099 390.88 255.97 390.944 255.819 390.991C255.671 391.036 255.504 391.059 255.318 391.059C255.039 391.059 254.803 391.009 254.609 390.909C254.416 390.81 254.27 390.681 254.17 390.522C254.07 390.364 254.021 390.197 254.021 390.021H254.565C254.573 390.17 254.616 390.288 254.694 390.376C254.772 390.462 254.868 390.523 254.981 390.561C255.095 390.596 255.207 390.613 255.318 390.613C255.467 390.613 255.591 390.594 255.69 390.555C255.792 390.516 255.869 390.462 255.922 390.394C255.975 390.325 256.001 390.247 256.001 390.159ZM258.523 390.613C258.652 390.613 258.771 390.587 258.881 390.534C258.99 390.481 259.08 390.409 259.15 390.317C259.221 390.224 259.261 390.117 259.271 389.998H259.786C259.776 390.186 259.713 390.36 259.596 390.522C259.48 390.683 259.329 390.812 259.142 390.912C258.954 391.01 258.748 391.059 258.523 391.059C258.285 391.059 258.077 391.017 257.899 390.933C257.724 390.849 257.577 390.733 257.46 390.587C257.345 390.44 257.258 390.272 257.199 390.083C257.143 389.892 257.114 389.689 257.114 389.477V389.354C257.114 389.141 257.143 388.939 257.199 388.75C257.258 388.559 257.345 388.39 257.46 388.243C257.577 388.097 257.724 387.981 257.899 387.897C258.077 387.813 258.285 387.771 258.523 387.771C258.771 387.771 258.988 387.822 259.174 387.924C259.359 388.023 259.505 388.16 259.61 388.334C259.718 388.506 259.776 388.701 259.786 388.92H259.271C259.261 388.789 259.224 388.671 259.159 388.565C259.097 388.46 259.011 388.376 258.901 388.313C258.794 388.249 258.668 388.217 258.523 388.217C258.357 388.217 258.218 388.25 258.104 388.316C257.993 388.381 257.904 388.469 257.838 388.58C257.773 388.689 257.727 388.812 257.697 388.946C257.67 389.079 257.656 389.215 257.656 389.354V389.477C257.656 389.615 257.67 389.752 257.697 389.887C257.725 390.021 257.771 390.144 257.835 390.253C257.901 390.362 257.99 390.45 258.102 390.517C258.215 390.581 258.355 390.613 258.523 390.613ZM260.938 388.328V391H260.396V387.83H260.923L260.938 388.328ZM261.928 387.812L261.925 388.316C261.88 388.307 261.837 388.301 261.796 388.299C261.757 388.295 261.712 388.293 261.661 388.293C261.536 388.293 261.426 388.312 261.33 388.352C261.234 388.391 261.153 388.445 261.087 388.516C261.021 388.586 260.968 388.67 260.929 388.768C260.892 388.863 260.867 388.969 260.855 389.084L260.703 389.172C260.703 388.98 260.722 388.801 260.759 388.633C260.798 388.465 260.857 388.316 260.938 388.188C261.018 388.057 261.119 387.955 261.242 387.883C261.367 387.809 261.516 387.771 261.688 387.771C261.727 387.771 261.771 387.776 261.822 387.786C261.873 387.794 261.908 387.803 261.928 387.812ZM263.018 387.83V391H262.473V387.83H263.018ZM262.432 386.989C262.432 386.901 262.458 386.827 262.511 386.767C262.565 386.706 262.646 386.676 262.751 386.676C262.854 386.676 262.934 386.706 262.988 386.767C263.045 386.827 263.073 386.901 263.073 386.989C263.073 387.073 263.045 387.146 262.988 387.206C262.934 387.265 262.854 387.294 262.751 387.294C262.646 387.294 262.565 387.265 262.511 387.206C262.458 387.146 262.432 387.073 262.432 386.989ZM264.43 388.439V392.219H263.885V387.83H264.383L264.43 388.439ZM266.565 389.389V389.45C266.565 389.681 266.538 389.895 266.483 390.092C266.429 390.287 266.349 390.457 266.243 390.602C266.14 390.746 266.012 390.858 265.859 390.938C265.707 391.019 265.532 391.059 265.335 391.059C265.134 391.059 264.956 391.025 264.802 390.959C264.647 390.893 264.517 390.796 264.409 390.669C264.302 390.542 264.216 390.39 264.151 390.212C264.089 390.034 264.046 389.834 264.022 389.611V389.283C264.046 389.049 264.09 388.839 264.154 388.653C264.219 388.468 264.304 388.31 264.409 388.179C264.517 388.046 264.646 387.945 264.799 387.877C264.951 387.807 265.127 387.771 265.326 387.771C265.525 387.771 265.702 387.811 265.856 387.889C266.011 387.965 266.141 388.074 266.246 388.217C266.352 388.359 266.431 388.53 266.483 388.729C266.538 388.927 266.565 389.146 266.565 389.389ZM266.021 389.45V389.389C266.021 389.23 266.004 389.082 265.971 388.943C265.938 388.803 265.886 388.68 265.815 388.574C265.747 388.467 265.659 388.383 265.552 388.322C265.444 388.26 265.316 388.229 265.168 388.229C265.031 388.229 264.912 388.252 264.811 388.299C264.711 388.346 264.626 388.409 264.556 388.489C264.485 388.567 264.428 388.657 264.383 388.759C264.34 388.858 264.308 388.962 264.286 389.069V389.828C264.325 389.965 264.38 390.094 264.45 390.215C264.521 390.334 264.614 390.431 264.731 390.505C264.849 390.577 264.996 390.613 265.174 390.613C265.32 390.613 265.446 390.583 265.552 390.522C265.659 390.46 265.747 390.375 265.815 390.268C265.886 390.16 265.938 390.037 265.971 389.898C266.004 389.758 266.021 389.608 266.021 389.45ZM268.584 387.83V388.246H266.87V387.83H268.584ZM267.45 387.06H267.992V390.215C267.992 390.322 268.009 390.403 268.042 390.458C268.075 390.513 268.118 390.549 268.171 390.566C268.224 390.584 268.28 390.593 268.341 390.593C268.386 390.593 268.433 390.589 268.481 390.581C268.532 390.571 268.57 390.563 268.596 390.558L268.599 391C268.556 391.014 268.499 391.026 268.429 391.038C268.36 391.052 268.277 391.059 268.18 391.059C268.047 391.059 267.925 391.032 267.813 390.979C267.702 390.927 267.613 390.839 267.547 390.716C267.482 390.591 267.45 390.423 267.45 390.212V387.06ZM269.809 387.83V391H269.264V387.83H269.809ZM269.223 386.989C269.223 386.901 269.249 386.827 269.302 386.767C269.356 386.706 269.437 386.676 269.542 386.676C269.646 386.676 269.725 386.706 269.779 386.767C269.836 386.827 269.864 386.901 269.864 386.989C269.864 387.073 269.836 387.146 269.779 387.206C269.725 387.265 269.646 387.294 269.542 387.294C269.437 387.294 269.356 387.265 269.302 387.206C269.249 387.146 269.223 387.073 269.223 386.989ZM270.535 389.45V389.383C270.535 389.154 270.568 388.942 270.635 388.747C270.701 388.55 270.797 388.379 270.922 388.234C271.047 388.088 271.198 387.975 271.376 387.895C271.554 387.812 271.753 387.771 271.974 387.771C272.196 387.771 272.396 387.812 272.574 387.895C272.754 387.975 272.906 388.088 273.031 388.234C273.158 388.379 273.255 388.55 273.321 388.747C273.388 388.942 273.421 389.154 273.421 389.383V389.45C273.421 389.679 273.388 389.891 273.321 390.086C273.255 390.281 273.158 390.452 273.031 390.599C272.906 390.743 272.755 390.856 272.577 390.938C272.401 391.019 272.202 391.059 271.979 391.059C271.757 391.059 271.557 391.019 271.379 390.938C271.201 390.856 271.049 390.743 270.922 390.599C270.797 390.452 270.701 390.281 270.635 390.086C270.568 389.891 270.535 389.679 270.535 389.45ZM271.077 389.383V389.45C271.077 389.608 271.096 389.758 271.133 389.898C271.17 390.037 271.226 390.16 271.3 390.268C271.376 390.375 271.471 390.46 271.584 390.522C271.697 390.583 271.829 390.613 271.979 390.613C272.128 390.613 272.258 390.583 272.369 390.522C272.482 390.46 272.576 390.375 272.65 390.268C272.725 390.16 272.78 390.037 272.817 389.898C272.856 389.758 272.876 389.608 272.876 389.45V389.383C272.876 389.227 272.856 389.079 272.817 388.94C272.78 388.8 272.724 388.676 272.647 388.568C272.573 388.459 272.479 388.373 272.366 388.311C272.255 388.248 272.124 388.217 271.974 388.217C271.825 388.217 271.694 388.248 271.581 388.311C271.47 388.373 271.376 388.459 271.3 388.568C271.226 388.676 271.17 388.8 271.133 388.94C271.096 389.079 271.077 389.227 271.077 389.383ZM274.643 388.507V391H274.101V387.83H274.613L274.643 388.507ZM274.514 389.295L274.288 389.286C274.29 389.069 274.322 388.869 274.385 388.686C274.447 388.5 274.535 388.339 274.648 388.202C274.762 388.065 274.896 387.96 275.053 387.886C275.211 387.81 275.386 387.771 275.577 387.771C275.733 387.771 275.874 387.793 275.999 387.836C276.124 387.877 276.23 387.943 276.318 388.035C276.408 388.127 276.477 388.246 276.523 388.393C276.57 388.537 276.594 388.714 276.594 388.923V391H276.049V388.917C276.049 388.751 276.024 388.618 275.976 388.519C275.927 388.417 275.855 388.344 275.762 388.299C275.668 388.252 275.553 388.229 275.416 388.229C275.281 388.229 275.158 388.257 275.047 388.313C274.938 388.37 274.843 388.448 274.763 388.548C274.685 388.647 274.623 388.762 274.578 388.891C274.535 389.018 274.514 389.152 274.514 389.295ZM279.263 390.159C279.263 390.081 279.245 390.009 279.21 389.942C279.177 389.874 279.107 389.812 279.002 389.758C278.898 389.701 278.742 389.652 278.533 389.611C278.357 389.574 278.198 389.53 278.056 389.479C277.915 389.429 277.795 389.367 277.695 389.295C277.598 389.223 277.522 389.138 277.47 389.04C277.417 388.942 277.391 388.828 277.391 388.697C277.391 388.572 277.418 388.454 277.473 388.343C277.529 388.231 277.608 388.133 277.71 388.047C277.813 387.961 277.938 387.894 278.082 387.845C278.227 387.796 278.388 387.771 278.565 387.771C278.819 387.771 279.036 387.816 279.216 387.906C279.396 387.996 279.533 388.116 279.629 388.267C279.725 388.415 279.772 388.58 279.772 388.762H279.23C279.23 388.674 279.204 388.589 279.151 388.507C279.101 388.423 279.025 388.354 278.926 388.299C278.828 388.244 278.708 388.217 278.565 388.217C278.415 388.217 278.293 388.24 278.199 388.287C278.107 388.332 278.04 388.39 277.997 388.46C277.956 388.53 277.936 388.604 277.936 388.683C277.936 388.741 277.945 388.794 277.965 388.841C277.986 388.886 278.023 388.928 278.076 388.967C278.129 389.004 278.203 389.039 278.299 389.072C278.395 389.105 278.517 389.139 278.665 389.172C278.925 389.23 279.139 389.301 279.307 389.383C279.475 389.465 279.6 389.565 279.682 389.685C279.764 389.804 279.805 389.948 279.805 390.118C279.805 390.257 279.775 390.384 279.717 390.499C279.66 390.614 279.577 390.714 279.468 390.798C279.36 390.88 279.231 390.944 279.081 390.991C278.933 391.036 278.766 391.059 278.58 391.059C278.301 391.059 278.064 391.009 277.871 390.909C277.678 390.81 277.531 390.681 277.432 390.522C277.332 390.364 277.282 390.197 277.282 390.021H277.827C277.835 390.17 277.878 390.288 277.956 390.376C278.034 390.462 278.13 390.523 278.243 390.561C278.356 390.596 278.469 390.613 278.58 390.613C278.729 390.613 278.853 390.594 278.952 390.555C279.054 390.516 279.131 390.462 279.184 390.394C279.236 390.325 279.263 390.247 279.263 390.159Z" fill="white"/>
<path fill-rule="evenodd" clip-rule="evenodd" d="M300 369H310V379H300V369ZM300.667 369.667V378.333H309.333V369.667H300.667Z" fill="white"/>
<path d="M307.333 374L303.333 376.309L303.333 371.69L307.333 374Z" fill="white"/>
<path fill-rule="evenodd" clip-rule="evenodd" d="M298 371.333H298.667V380.333H307.667V381H298V371.333Z" fill="white"/>
<path d="M297.582 390.54V391H295.449V390.54H297.582ZM295.561 386.734V391H294.995V386.734H295.561ZM298.736 387.83V391H298.191V387.83H298.736ZM298.15 386.989C298.15 386.901 298.177 386.827 298.229 386.767C298.284 386.706 298.364 386.676 298.47 386.676C298.573 386.676 298.652 386.706 298.707 386.767C298.764 386.827 298.792 386.901 298.792 386.989C298.792 387.073 298.764 387.146 298.707 387.206C298.652 387.265 298.573 387.294 298.47 387.294C298.364 387.294 298.284 387.265 298.229 387.206C298.177 387.146 298.15 387.073 298.15 386.989ZM299.604 386.5H300.148V390.385L300.102 391H299.604V386.5ZM302.29 389.389V389.45C302.29 389.681 302.263 389.895 302.208 390.092C302.153 390.287 302.073 390.457 301.968 390.602C301.862 390.746 301.733 390.858 301.581 390.938C301.429 391.019 301.254 391.059 301.057 391.059C300.855 391.059 300.679 391.024 300.526 390.956C300.376 390.886 300.249 390.785 300.146 390.654C300.042 390.523 299.959 390.365 299.896 390.18C299.836 389.994 299.794 389.785 299.771 389.553V389.283C299.794 389.049 299.836 388.839 299.896 388.653C299.959 388.468 300.042 388.31 300.146 388.179C300.249 388.046 300.376 387.945 300.526 387.877C300.677 387.807 300.852 387.771 301.051 387.771C301.25 387.771 301.427 387.811 301.581 387.889C301.735 387.965 301.864 388.074 301.968 388.217C302.073 388.359 302.153 388.53 302.208 388.729C302.263 388.927 302.29 389.146 302.29 389.389ZM301.745 389.45V389.389C301.745 389.23 301.73 389.082 301.701 388.943C301.672 388.803 301.625 388.68 301.561 388.574C301.496 388.467 301.411 388.383 301.306 388.322C301.2 388.26 301.07 388.229 300.916 388.229C300.779 388.229 300.66 388.252 300.559 388.299C300.459 388.346 300.374 388.409 300.304 388.489C300.233 388.567 300.176 388.657 300.131 388.759C300.088 388.858 300.056 388.962 300.034 389.069V389.775C300.065 389.912 300.116 390.044 300.187 390.171C300.259 390.296 300.354 390.398 300.474 390.479C300.595 390.559 300.744 390.599 300.922 390.599C301.068 390.599 301.193 390.569 301.297 390.511C301.402 390.45 301.487 390.367 301.552 390.262C301.618 390.156 301.667 390.034 301.698 389.896C301.729 389.757 301.745 389.608 301.745 389.45ZM303.518 388.328V391H302.976V387.83H303.503L303.518 388.328ZM304.508 387.812L304.505 388.316C304.46 388.307 304.417 388.301 304.376 388.299C304.337 388.295 304.292 388.293 304.241 388.293C304.116 388.293 304.006 388.312 303.91 388.352C303.814 388.391 303.733 388.445 303.667 388.516C303.601 388.586 303.548 388.67 303.509 388.768C303.472 388.863 303.447 388.969 303.436 389.084L303.283 389.172C303.283 388.98 303.302 388.801 303.339 388.633C303.378 388.465 303.438 388.316 303.518 388.188C303.598 388.057 303.699 387.955 303.822 387.883C303.947 387.809 304.096 387.771 304.268 387.771C304.307 387.771 304.352 387.776 304.402 387.786C304.453 387.794 304.488 387.803 304.508 387.812ZM306.761 390.458V388.826C306.761 388.701 306.735 388.593 306.685 388.501C306.636 388.407 306.562 388.335 306.462 388.284C306.362 388.233 306.239 388.208 306.093 388.208C305.956 388.208 305.836 388.231 305.732 388.278C305.631 388.325 305.551 388.387 305.492 388.463C305.436 388.539 305.407 388.621 305.407 388.709H304.865C304.865 388.596 304.895 388.483 304.953 388.372C305.012 388.261 305.096 388.16 305.205 388.07C305.316 387.979 305.449 387.906 305.604 387.854C305.76 387.799 305.934 387.771 306.125 387.771C306.355 387.771 306.559 387.811 306.734 387.889C306.912 387.967 307.051 388.085 307.15 388.243C307.252 388.399 307.303 388.596 307.303 388.832V390.309C307.303 390.414 307.312 390.526 307.329 390.646C307.349 390.765 307.377 390.867 307.414 390.953V391H306.849C306.821 390.938 306.8 390.854 306.784 390.751C306.769 390.646 306.761 390.548 306.761 390.458ZM306.854 389.078L306.86 389.459H306.312C306.158 389.459 306.021 389.472 305.899 389.497C305.778 389.521 305.677 389.557 305.595 389.605C305.513 389.654 305.45 389.716 305.407 389.79C305.364 389.862 305.343 389.947 305.343 390.045C305.343 390.145 305.365 390.235 305.41 390.317C305.455 390.399 305.522 390.465 305.612 390.514C305.704 390.561 305.816 390.584 305.949 390.584C306.115 390.584 306.262 390.549 306.389 390.479C306.516 390.408 306.616 390.322 306.69 390.221C306.767 390.119 306.808 390.021 306.813 389.925L307.045 390.186C307.031 390.268 306.994 390.358 306.934 390.458C306.873 390.558 306.792 390.653 306.69 390.745C306.591 390.835 306.472 390.91 306.333 390.971C306.196 391.029 306.042 391.059 305.87 391.059C305.655 391.059 305.467 391.017 305.305 390.933C305.145 390.849 305.02 390.736 304.93 390.596C304.842 390.453 304.798 390.294 304.798 390.118C304.798 389.948 304.831 389.799 304.897 389.67C304.964 389.539 305.06 389.431 305.185 389.345C305.31 389.257 305.46 389.19 305.636 389.146C305.812 389.101 306.008 389.078 306.225 389.078H306.854ZM308.697 388.328V391H308.155V387.83H308.683L308.697 388.328ZM309.688 387.812L309.685 388.316C309.64 388.307 309.597 388.301 309.556 388.299C309.517 388.295 309.472 388.293 309.421 388.293C309.296 388.293 309.186 388.312 309.09 388.352C308.994 388.391 308.913 388.445 308.847 388.516C308.78 388.586 308.728 388.67 308.688 388.768C308.651 388.863 308.627 388.969 308.615 389.084L308.463 389.172C308.463 388.98 308.481 388.801 308.519 388.633C308.558 388.465 308.617 388.316 308.697 388.188C308.777 388.057 308.879 387.955 309.002 387.883C309.127 387.809 309.275 387.771 309.447 387.771C309.486 387.771 309.531 387.776 309.582 387.786C309.633 387.794 309.668 387.803 309.688 387.812ZM311.132 390.672L312.014 387.83H312.594L311.322 391.489C311.293 391.567 311.254 391.651 311.205 391.741C311.158 391.833 311.098 391.92 311.023 392.002C310.949 392.084 310.859 392.15 310.754 392.201C310.65 392.254 310.526 392.28 310.382 392.28C310.339 392.28 310.284 392.274 310.218 392.263C310.151 392.251 310.104 392.241 310.077 392.233L310.074 391.794C310.09 391.796 310.114 391.798 310.147 391.8C310.183 391.804 310.207 391.806 310.221 391.806C310.344 391.806 310.448 391.789 310.534 391.756C310.62 391.725 310.692 391.671 310.751 391.595C310.812 391.521 310.863 391.418 310.906 391.287L311.132 390.672ZM310.484 387.83L311.308 390.291L311.448 390.862L311.059 391.062L309.893 387.83H310.484Z" fill="white"/>
<g clip-path="url(#clip3_2509_51753)">
<path d="M141.18 25.252V20.5045H141.112L139.671 21.5158V20.5205L141.184 19.461H142.216V25.252H141.18ZM145.751 25.3964C145.154 25.3964 144.664 25.2332 144.282 24.9068C143.899 24.5804 143.696 24.1604 143.672 23.6467H144.643C144.675 23.9116 144.794 24.1256 145 24.2888C145.206 24.452 145.459 24.5336 145.759 24.5336C146.098 24.5336 146.373 24.4293 146.581 24.2206C146.793 24.0092 146.898 23.731 146.898 23.3859C146.898 23.0407 146.793 22.7612 146.581 22.5471C146.373 22.3304 146.101 22.2221 145.767 22.2221C145.531 22.2221 145.321 22.2716 145.137 22.3705C144.955 22.4695 144.81 22.61 144.703 22.7919H143.764L144.065 19.461H147.552V20.3359H144.868L144.727 21.9612H144.795C145.063 21.6 145.471 21.4194 146.019 21.4194C146.568 21.4194 147.017 21.6014 147.368 21.9652C147.721 22.3291 147.898 22.7946 147.898 23.3618C147.898 23.9664 147.7 24.4574 147.304 24.8346C146.91 25.2091 146.393 25.3964 145.751 25.3964ZM149.534 24.6379C149.347 24.6379 149.193 24.5778 149.073 24.4574C148.952 24.337 148.892 24.1858 148.892 24.0039C148.892 23.8193 148.952 23.6681 149.073 23.5504C149.193 23.43 149.347 23.3698 149.534 23.3698C149.724 23.3698 149.878 23.43 149.996 23.5504C150.116 23.6681 150.176 23.8193 150.176 24.0039C150.176 24.1858 150.116 24.337 149.996 24.4574C149.878 24.5778 149.724 24.6379 149.534 24.6379ZM149.534 21.6281C149.347 21.6281 149.193 21.5693 149.073 21.4515C148.952 21.3312 148.892 21.18 148.892 20.9981C148.892 20.8135 148.952 20.6623 149.073 20.5446C149.193 20.4242 149.347 20.364 149.534 20.364C149.724 20.364 149.878 20.4242 149.996 20.5446C150.116 20.6623 150.176 20.8135 150.176 20.9981C150.176 21.18 150.116 21.3312 149.996 21.4515C149.878 21.5693 149.724 21.6281 149.534 21.6281ZM153.98 25.252V24.1724H151.151V23.2494C151.622 22.3826 152.408 21.1198 153.511 19.461H154.972V23.2976H155.754V24.1724H154.972V25.252H153.98ZM152.11 23.2615V23.3217H153.996V20.3038H153.94C153.314 21.2295 152.704 22.2154 152.11 23.2615ZM157.929 25.252V20.5045H157.86L156.42 21.5158V20.5205L157.933 19.461H158.964V25.252H157.929Z" fill="white"/>
<path opacity="0.35" d="M292.428 20.9338C292.428 20.0067 293.18 19.255 294.107 19.255H302.326C303.253 19.255 304.004 20.0067 304.004 20.9338V23.3511C304.004 24.2783 303.253 25.0299 302.326 25.0299H294.107C293.18 25.0299 292.428 24.2783 292.428 23.3511V20.9338Z" stroke="white" stroke-width="0.510093"/>
<path opacity="0.4" d="M304.743 21.417V23.4574C305.154 23.2846 305.421 22.8826 305.421 22.4372C305.421 21.9918 305.154 21.5898 304.743 21.417Z" fill="white"/>
<path d="M293.14 20.9337C293.14 20.3997 293.573 19.9668 294.107 19.9668H302.325C302.859 19.9668 303.292 20.3997 303.292 20.9337V23.351C303.292 23.885 302.859 24.3179 302.325 24.3179H294.107C293.573 24.3179 293.14 23.885 293.14 23.351V20.9337Z" fill="white"/>
<path fill-rule="evenodd" clip-rule="evenodd" d="M284.68 20.7344C285.872 20.7344 287.019 21.2021 287.884 22.0408C287.949 22.1056 288.053 22.1048 288.117 22.039L288.739 21.3981C288.771 21.3648 288.789 21.3196 288.789 21.2726C288.789 21.2256 288.77 21.1806 288.737 21.1476C286.469 18.9287 282.89 18.9287 280.622 21.1476C280.589 21.1806 280.571 21.2255 280.57 21.2725C280.57 21.3195 280.588 21.3647 280.621 21.3981L281.243 22.039C281.307 22.1048 281.411 22.1057 281.476 22.0408C282.34 21.2021 283.487 20.7344 284.68 20.7344ZM284.697 22.7092C285.353 22.7092 285.984 22.9578 286.47 23.4067C286.536 23.4704 286.639 23.469 286.703 23.4036L287.325 22.7627C287.357 22.7291 287.375 22.6835 287.375 22.6361C287.375 22.5887 287.355 22.5435 287.322 22.5106C285.843 21.1063 283.553 21.1063 282.074 22.5106C282.04 22.5435 282.021 22.5887 282.021 22.6361C282.021 22.6835 282.039 22.7291 282.072 22.7627L282.693 23.4036C282.757 23.469 282.86 23.4704 282.926 23.4067C283.411 22.9581 284.043 22.7095 284.697 22.7092ZM285.961 24.0002C285.962 24.0478 285.944 24.0936 285.91 24.1269L284.835 25.2341C284.804 25.2666 284.761 25.285 284.716 25.285C284.671 25.285 284.628 25.2666 284.597 25.2341L283.522 24.1269C283.489 24.0935 283.47 24.0477 283.471 24.0002C283.472 23.9527 283.493 23.9077 283.527 23.8758C284.214 23.2832 285.219 23.2832 285.905 23.8758C285.94 23.9077 285.96 23.9527 285.961 24.0002Z" fill="white"/>
<path d="M272.835 20.9338C272.835 20.6668 273.051 20.4503 273.318 20.4503H273.802C274.069 20.4503 274.285 20.6668 274.285 20.9338V24.8015C274.285 25.0685 274.069 25.2849 273.802 25.2849H273.318C273.051 25.2849 272.835 25.0685 272.835 24.8015V20.9338Z" fill="white"/>
<path d="M275.252 19.9669C275.252 19.6999 275.468 19.4834 275.735 19.4834H276.219C276.486 19.4834 276.702 19.6999 276.702 19.9669V24.8015C276.702 25.0685 276.486 25.2849 276.219 25.2849H275.735C275.468 25.2849 275.252 25.0685 275.252 24.8015V19.9669Z" fill="white"/>
<path d="M270.417 22.6259C270.417 22.3589 270.634 22.1424 270.901 22.1424H271.384C271.651 22.1424 271.868 22.3589 271.868 22.6259V24.8015C271.868 25.0685 271.651 25.2849 271.384 25.2849H270.901C270.634 25.2849 270.417 25.0685 270.417 24.8015V22.6259Z" fill="white"/>
<path d="M268 23.8345C268 23.5675 268.216 23.3511 268.483 23.3511H268.967C269.234 23.3511 269.45 23.5675 269.45 23.8345V24.8015C269.45 25.0685 269.234 25.2849 268.967 25.2849H268.483C268.216 25.2849 268 25.0685 268 24.8015V23.8345Z" fill="white"/>
</g>
<rect x="188.85" y="407.152" width="64.7837" height="1.93384" rx="0.966921" fill="white"/>
<rect x="188.85" y="407.152" width="64.7837" height="1.93384" rx="0.966921" fill="white"/>
</g>
<defs>
<clipPath id="clip0_2509_51753">
<rect x="126" y="10" width="191" height="411" rx="20" fill="white"/>
</clipPath>
<clipPath id="clip1_2509_51753">
<rect width="46" height="10" fill="white" transform="translate(138 40)"/>
</clipPath>
<clipPath id="clip2_2509_51753">
<rect width="16" height="16" fill="white" transform="translate(171 367)"/>
</clipPath>
<clipPath id="clip3_2509_51753">
<rect width="308" height="23" fill="white" transform="translate(64 10)"/>
</clipPath>
</defs>
</svg>
