<svg width="1440" height="900" viewBox="0 0 1440 900" fill="none" xmlns="http://www.w3.org/2000/svg">
<path opacity="0.1" d="M228.355 -1V-0.34545M228.355 -0.34545V149.545M228.355 -0.34545L78.5052 -0.345451M228.355 -0.34545L378.205 -0.345448M228.355 149.545V299.436M228.355 149.545H78.5052M228.355 149.545L378.205 149.545M228.355 299.436V449.327M228.355 299.436H78.5052M228.355 299.436H378.205M228.355 449.327V599.218M228.355 449.327H78.5052M228.355 449.327H378.205M228.355 599.218V749.109M228.355 599.218H78.5052M228.355 599.218H378.205M228.355 749.109V899M228.355 749.109H78.5052M228.355 749.109H378.205M228.355 899H78.5052M228.355 899H378.205M78.5052 -1V-0.345451M78.5052 -0.345451V149.545M78.5052 -0.345451L-71.3446 -0.345453M78.5052 149.545V299.436M78.5052 149.545H-71.3446M78.5052 299.436V449.327M78.5052 299.436H-71.3446M78.5052 449.327V599.218M78.5052 449.327H-71.3446M78.5052 599.218V749.109M78.5052 599.218H-71.3446M78.5052 749.109V899M78.5052 749.109H-71.3446M78.5052 899H-71.3446M677.904 -1V-0.345445M677.904 -0.345445L528.055 -0.345447M677.904 -0.345445L723.71 -0.345445M-71.3446 -1V-0.345453M-71.3446 -0.345453V149.545M-71.3446 -0.345453L-221.194 -0.345454M-71.3446 149.545V299.436M-71.3446 149.545H-221.194M-71.3446 299.436V449.327M-71.3446 299.436H-221.194M-71.3446 449.327V599.218M-71.3446 449.327H-221.194M-71.3446 599.218V749.109M-71.3446 599.218H-221.194M-71.3446 749.109V899M-71.3446 749.109H-221.194M-71.3446 899H-221.194M528.055 -1V-0.345447M528.055 -0.345447V149.545M528.055 -0.345447L378.205 -0.345448M528.055 149.545V299.436M528.055 149.545H378.205M528.055 149.545H677.904H723.71M528.055 299.436V449.327M528.055 299.436H378.205M528.055 299.436H677.904H723.71M528.055 449.327V599.218M528.055 449.327H378.205M528.055 449.327H677.904H723.71M528.055 599.218V749.109M528.055 599.218H378.205M528.055 599.218H677.904H723.71M528.055 749.109V899M528.055 749.109H378.205M528.055 749.109H677.904H723.71M528.055 899H378.205M528.055 899H677.904H723.71M-221.194 -1V-0.345454M-221.194 -0.345454V149.545M-221.194 -0.345454L-267 -0.345455M-221.194 149.545V299.436M-221.194 149.545H-267M-221.194 299.436V449.327M-221.194 299.436H-267M-221.194 449.327V599.218M-221.194 449.327H-267M-221.194 599.218V749.109M-221.194 599.218H-267M-221.194 749.109V899M-221.194 749.109H-267M-221.194 899H-267M378.205 -1V-0.345448M378.205 -0.345448V149.545M378.205 149.545V299.436M378.205 299.436V449.327M378.205 449.327V599.218M378.205 599.218V749.109M378.205 749.109V899M1130.16 -1V-0.34545M1130.16 -0.34545V149.545M1130.16 -0.34545L980.308 -0.345451M1130.16 -0.34545L1280.01 -0.345448M1130.16 149.545V299.436M1130.16 149.545H980.308M1130.16 149.545L1280.01 149.545M1130.16 299.436V449.327M1130.16 299.436H980.308M1130.16 299.436H1280.01M1130.16 449.327V599.218M1130.16 449.327H980.308M1130.16 449.327H1280.01M1130.16 599.218V749.109M1130.16 599.218H980.308M1130.16 599.218H1280.01M1130.16 749.109V899M1130.16 749.109H980.308M1130.16 749.109H1280.01M1130.16 899H980.308M1130.16 899H1280.01M1706 -1V828.309M980.308 -1V-0.345451M980.308 -0.345451V149.545M980.308 -0.345451L830.458 -0.345453M980.308 149.545V299.436M980.308 149.545H830.458M980.308 299.436V449.327M980.308 299.436H830.458M980.308 449.327V599.218M980.308 449.327H830.458M980.308 599.218V749.109M980.308 599.218H830.458M980.308 749.109V899M980.308 749.109H830.458M980.308 899H830.458M1579.71 -1V-0.345445M1579.71 -0.345445V149.545M1579.71 -0.345445L1429.86 -0.345447M1579.71 -0.345445L1625.51 -0.345445M1579.71 149.545V299.436M1579.71 149.545H1429.86M1579.71 149.545H1625.51M1579.71 299.436V449.327M1579.71 299.436H1429.86M1579.71 299.436H1625.51M1579.71 449.327V599.218M1579.71 449.327H1429.86M1579.71 449.327H1625.51M1579.71 599.218V749.109M1579.71 599.218H1429.86M1579.71 599.218H1625.51M1579.71 749.109V899M1579.71 749.109H1429.86M1579.71 749.109H1625.51M1579.71 899H1429.86M1579.71 899H1625.51M830.458 -1V-0.345453M830.458 -0.345453V149.545M830.458 -0.345453L680.609 -0.345454M830.458 149.545V299.436M830.458 149.545H680.609M830.458 299.436V449.327M830.458 299.436H680.609M830.458 449.327V599.218M830.458 449.327H680.609M830.458 599.218V749.109M830.458 599.218H680.609M830.458 749.109V899M830.458 749.109H680.609M830.458 899H680.609M1429.86 -1V-0.345447M1429.86 -0.345447V149.545M1429.86 -0.345447L1280.01 -0.345448M1429.86 149.545V299.436M1429.86 149.545H1280.01M1429.86 299.436V449.327M1429.86 299.436H1280.01M1429.86 449.327V599.218M1429.86 449.327H1280.01M1429.86 599.218V749.109M1429.86 599.218H1280.01M1429.86 749.109V899M1429.86 749.109H1280.01M1429.86 899H1280.01M680.609 -1V-0.345454M680.609 -0.345454V149.545M680.609 -0.345454L634.803 -0.345455M680.609 149.545V299.436M680.609 149.545H634.803M680.609 299.436V449.327M680.609 299.436H634.803M680.609 449.327V599.218M680.609 449.327H634.803M680.609 599.218V749.109M680.609 599.218H634.803M680.609 749.109V899M680.609 749.109H634.803M680.609 899H634.803M1280.01 -1V-0.345448M1280.01 -0.345448V149.545M1280.01 149.545V299.436M1280.01 299.436V449.327M1280.01 449.327V599.218M1280.01 599.218V749.109M1280.01 749.109V899" stroke="url(#paint0_radial_2509_51256)" stroke-width="1.5"/>
<defs>
<radialGradient id="paint0_radial_2509_51256" cx="0" cy="0" r="1" gradientUnits="userSpaceOnUse" gradientTransform="translate(603.96 425.496) rotate(88.1627) scale(313.165 372.735)">
<stop stopColor="white" stop-opacity="0.5"/>
<stop offset="1" stopColor="white" stop-opacity="0"/>
</radialGradient>
</defs>
</svg>
