<svg width="27" height="105" viewBox="0 0 27 105" fill="none" xmlns="http://www.w3.org/2000/svg">
<path d="M0.140625 50.0323C0.140625 67.3373 25.5572 70.582 25.5572 100.866C25.5572 131.149 28.8019 -20.269 25.5572 3.5253C22.3126 27.3196 0.140625 32.7274 0.140625 50.0323Z" fill="white" fill-opacity="0.3"/>
<path d="M12.4489 54.5634C12.3119 54.5634 12.1749 54.5129 12.0667 54.4048L7.69003 50.0281C7.48093 49.819 7.48093 49.4729 7.69003 49.2638L12.0667 44.8871C12.2758 44.6779 12.6219 44.6779 12.831 44.8871C13.0401 45.0962 13.0401 45.4423 12.831 45.6514L8.83648 49.6459L12.831 53.6405C13.0401 53.8496 13.0401 54.1957 12.831 54.4048C12.7301 54.5129 12.5859 54.5634 12.4489 54.5634Z" fill="white"/>
<path d="M20.3282 50.1878H8.19312C7.8975 50.1878 7.65234 49.9426 7.65234 49.647C7.65234 49.3514 7.8975 49.1062 8.19312 49.1062H20.3282C20.6238 49.1062 20.869 49.3514 20.869 49.647C20.869 49.9426 20.6238 50.1878 20.3282 50.1878Z" fill="white"/>
</svg>
